<?xml version="1.0" encoding="UTF-8"?>
<svg id="Layer_2" data-name="Layer 2" xmlns="http://www.w3.org/2000/svg" viewBox="0 0 196.47 108.07">
  <defs>
    <style>
      .cls-1 {
        fill: #292a2b;
      }

      .cls-2 {
        fill: #4b4be2;
      }

      .cls-3 {
        fill: #5e5aff;
      }
    </style>
  </defs>
  <g id="Layer_1-2" data-name="Layer 1">
    <g>
      <path class="cls-3" d="m91.46,29.08c0-.9.09-5.83,2.27-11.32l-76.52,3.75C6.94,22.96-.67,32.31.05,42.67c.79,11.48,10.96,19.85,22.26,18.55l73.22-16.43c-4.14-7.08-4.08-14.58-4.07-15.72Zm-61.58,10.79l-3.01,8.06c-.12.33-.41.58-.76.63l-8.48,1.42c-.35.06-.71-.08-.93-.35l-5.47-6.64c-.23-.27-.29-.65-.16-.98l3.01-8.06c.12-.33.41-.58.76-.63l8.48-1.42c.35-.06.71.08.93.35l5.47,6.64c.23.27.29.65.16.98Z"/>
      <g>
        <path class="cls-1" d="m24.29,108.07c-1.25,0-2.56-.09-3.94-.28-1.38-.19-2.68-.58-3.89-1.18s-2.19-1.49-2.95-2.69-1.14-2.81-1.14-4.83v-12.35h-6.42v-8.12h.14c1.41,0,2.53-.06,3.37-.19.84-.13,1.47-.43,1.88-.92.42-.49.69-1.25.83-2.3.14-1.05.2-2.49.2-4.33v-1.68h10.94v9.42h7.93v8.12h-7.93v9.53c0,1.05.13,1.93.38,2.65s.93,1.08,2.03,1.08c.65,0,1.26-.06,1.84-.19.58-.13,1.01-.25,1.3-.38v7.88c-.42.18-1.02.35-1.8.51-.79.16-1.71.24-2.78.24h.01Z"/>
        <path class="cls-1" d="m50.15,108.04c-3.25,0-6.11-.63-8.57-1.9-2.46-1.26-4.39-3.02-5.77-5.28-1.38-2.26-2.07-4.87-2.07-7.85s.69-5.6,2.07-7.85c1.38-2.26,3.3-4.01,5.77-5.27,2.46-1.25,5.32-1.88,8.57-1.88s6.11.63,8.57,1.88,4.39,3.01,5.77,5.27c1.38,2.26,2.07,4.87,2.07,7.85s-.69,5.6-2.07,7.85c-1.38,2.26-3.3,4.02-5.77,5.28-2.46,1.26-5.32,1.9-8.57,1.9Zm0-8.26c1.12,0,2.08-.28,2.87-.84.79-.56,1.4-1.34,1.83-2.36.42-1.01.64-2.2.64-3.57s-.21-2.56-.64-3.56-1.03-1.78-1.83-2.33c-.8-.55-1.75-.83-2.87-.83s-2.05.28-2.86.83c-.8.55-1.42,1.33-1.84,2.33s-.64,2.19-.64,3.56.21,2.56.64,3.57c.42,1.01,1.04,1.8,1.84,2.36s1.75.84,2.86.84Z"/>
        <path class="cls-1" d="m85.4,108.04c-3.25,0-6.11-.63-8.57-1.9-2.46-1.26-4.39-3.02-5.77-5.28-1.38-2.26-2.07-4.87-2.07-7.85s.69-5.6,2.07-7.85c1.38-2.26,3.3-4.01,5.77-5.27,2.46-1.25,5.32-1.88,8.57-1.88s6.11.63,8.57,1.88,4.39,3.01,5.77,5.27c1.38,2.26,2.07,4.87,2.07,7.85s-.69,5.6-2.07,7.85c-1.38,2.26-3.3,4.02-5.77,5.28-2.46,1.26-5.32,1.9-8.57,1.9Zm0-8.26c1.12,0,2.08-.28,2.87-.84s1.4-1.34,1.83-2.36c.42-1.01.64-2.2.64-3.57s-.21-2.56-.64-3.56c-.43-1-1.03-1.78-1.83-2.33s-1.75-.83-2.87-.83-2.05.28-2.86.83c-.8.55-1.42,1.33-1.84,2.33-.42,1-.64,2.19-.64,3.56s.21,2.56.64,3.57c.42,1.01,1.04,1.8,1.84,2.36.8.56,1.75.84,2.86.84Z"/>
        <path class="cls-1" d="m116.89,68.76v38.6h-10.75v-38.6h10.75Z"/>
        <path class="cls-1" d="m122.44,107.37v-38.46h10.34v19.23l-1.87-1.03,9.1-8.5h13.19l-14.54,13.13,2.17-3.76,11.89,19.39h-11.4l-7.66-13.73,2.92-.08-4.79,4.47,1-4.58v13.92h-10.35Z"/>
        <path class="cls-1" d="m160.16,75.22c-1.61,0-3.01-.42-4.21-1.25-1.2-.83-1.8-2.01-1.8-3.55s.6-2.74,1.8-3.56c1.2-.82,2.6-1.23,4.21-1.23s3.01.41,4.21,1.23c1.2.82,1.8,2.01,1.8,3.56s-.6,2.74-1.8,3.56-2.6,1.23-4.21,1.23h0Zm-5.39,32.14v-28.76h10.8v28.76h-10.8Z"/>
        <path class="cls-1" d="m186.21,108.07c-1.25,0-2.56-.09-3.94-.28-1.38-.19-2.68-.58-3.89-1.18s-2.19-1.49-2.95-2.69c-.76-1.2-1.14-2.81-1.14-4.83v-12.35h-6.42v-8.12h.14c1.41,0,2.53-.06,3.37-.19.84-.13,1.47-.43,1.88-.92.42-.49.69-1.25.83-2.3s.2-2.49.2-4.33v-1.68h10.94v9.42h7.93v8.12h-7.93v9.53c0,1.05.13,1.93.38,2.65s.93,1.08,2.03,1.08c.65,0,1.26-.06,1.84-.19.58-.13,1.01-.25,1.3-.38v7.88c-.42.18-1.02.35-1.8.51-.79.16-1.71.24-2.78.24h0Z"/>
      </g>
      <g>
        <path class="cls-3" d="m120.11,38.59l6.92,3.54c.55.28,1.2.26,1.74-.05,1.7-1.01,5.39-3.24,5.91-3.99.25-.37.67-.59,1.11-.59l13.34.02c.88,0,1.52.83,1.31,1.69-1.41,5.83-9.74,19.04-27.04,18.13-28.63-1.51-28.58-25.51-28.58-27.67-.08-4.84.22-28.19,28.67-29.61,17.31-.86,25.56,11.85,26.95,17.69.21.86-.43,1.69-1.31,1.69l-13.34-.02c-.45,0-.86-.22-1.11-.59-.5-.73-3.98-3.6-5.75-5.04-.61-.49-1.46-.54-2.12-.11l-7.08,4.6c-.52.34-.83.92-.82,1.54l.22,17.18c0,.67.39,1.28.98,1.58Z"/>
        <path class="cls-2" d="m123.4,57.33c17.3.91,25.63-12.3,27.04-18.13.21-.86-.43-1.69-1.31-1.69l-13.34-.02c-.44,0-.86.22-1.11.59-.53.75-4.21,2.98-5.91,3.99-.53.32-1.19.33-1.74.05l-6.92-3.54c-.6-.3-.97-.91-.98-1.58l-.13-11.09-24.17,3.77c0,5.87,2.36,26.28,28.57,27.66Z"/>
      </g>
      <path class="cls-3" d="m153.43,38.46c-.03-.55.41-1.01.96-1.01h12.79c.53,0,.96.43.96.96v4.57c0,.36.2.68.51.85l5.64,2.97c.28.15.61.15.89,0l5.8-3.05c.23-.12.4-.33.47-.58l.02-1.98c0-.42-.23-.8-.6-.99l-13.64-7.02c-9.91-6.13-12.28-8.31-12.51-16.26C154.45,7.83,161.54-.04,174.73,0c16.98-.09,22.44,10.28,21.63,18.61-.13.7-.67,1.36-1.38,1.36h-12.69c-.53,0-.96-.43-.96-.96v-4.57c0-.36-.2-.68-.51-.85l-5.64-2.97c-.28-.15-.61-.15-.89,0l-5.8,3.05c-.23.12-.4.33-.47.58v2.17c0,.4,0,.75.28.99l13.93,7.66c4.45,2.32,7.98,3.72,10.21,5.84,2.44,2.49,4.04,5.13,4.04,9.99,0,11.62-8.23,16.47-21.73,16.47-14.89,0-21.3-7.91-21.3-18.91Z"/>
      <path class="cls-2" d="m91.5,30.68l-61.61,9.14s0,.04-.01.06l-3.01,8.06c-.12.33-.41.57-.76.63l-8.48,1.42c-.35.06-.71-.08-.93-.35l-5.47-6.64c-.09-.11-.15-.24-.19-.38L.21,44.22c2.03,11.04,9.69,17.47,21.85,17.13.09,0,.18-.01.27-.03l73.2-16.53c-3.27-5.61-3.81-11.53-4.03-14.11Z"/>
      <path class="cls-2" d="m160.79,28.92c1.67,1.26,3.78,2.62,6.43,4.26l13.64,7.02c.37.19.6.57.6.99l-.02,1.98c-.07.25-.24.46-.47.58l-5.8,3.05c-.28.15-.61.15-.89,0l-5.64-2.97c-.31-.17-.51-.49-.51-.85v-4.57c0-.53-.43-.96-.96-.96h-12.79c-.55,0-.99.46-.96,1.01,0,11.01,6.42,18.91,21.3,18.91,13.51,0,21.73-4.85,21.73-16.47,0-4.86-1.6-7.5-4.04-9.99-2.22-2.12-5.17-3.22-9.62-5.54"/>
    </g>
  </g>
</svg>